# xmcd
# 
# Track frame offsets:
#     150
#     5064
#     22042
#     39405
#     56172
#     77350
#     94376
#     119425
#     141349
#     158868
#     177187
#     203050
#     219250
#     239488
# 
# Disc length: 3339
# 
# Revision: 3
# Processed by: cddbd v1.5.2PL0 Copyright (c) Steve Scherf et al.
# Submitted via: fre:ac v1.0.17
# 
DISCID=c00d090e
DTITLE=Die Fantastischen Vier - Viel
DYEAR=2004
DGENRE=Hip-Hop
TTITLE0=Auf geht's
TTITLE1=Bring It Back
TTITLE2=Geboren
TTITLE3=Jede Generation
TTITLE4=Pipis und Popos
TTITLE5=Leben zu zweit
TTITLE6=Sommerregen
TTITLE7=Ewig
TTITLE8=Keine Lösung
TTITLE9=Hey
TTITLE10=Mein Schwert
TTITLE11=Ruf die Polizei
TTITLE12=Troy
TTITLE13=Viel
EXTD=
EXTT0=
EXTT1=
EXTT2=
EXTT3=
EXTT4=
EXTT5=
EXTT6=
EXTT7=
EXTT8=
EXTT9=
EXTT10=
EXTT11=
EXTT12=
EXTT13=
PLAYORDER=
